<?xml version="1.0" encoding="utf-8" standalone="no"?>
<!DOCTYPE svg PUBLIC "-//W3C//DTD SVG 1.1//EN"
  "http://www.w3.org/Graphics/SVG/1.1/DTD/svg11.dtd">
<svg xmlns:xlink="http://www.w3.org/1999/xlink" width="460.8pt" height="345.6pt" viewBox="0 0 460.8 345.6" xmlns="http://www.w3.org/2000/svg" version="1.1">
 <metadata>
  <rdf:RDF xmlns:dc="http://purl.org/dc/elements/1.1/" xmlns:cc="http://creativecommons.org/ns#" xmlns:rdf="http://www.w3.org/1999/02/22-rdf-syntax-ns#">
   <cc:Work>
    <dc:type rdf:resource="http://purl.org/dc/dcmitype/StillImage"/>
    <dc:date>2023-06-20T11:01:16.465200</dc:date>
    <dc:format>image/svg+xml</dc:format>
    <dc:creator>
     <cc:Agent>
      <dc:title>Matplotlib v3.7.1, https://matplotlib.org/</dc:title>
     </cc:Agent>
    </dc:creator>
   </cc:Work>
  </rdf:RDF>
 </metadata>
 <defs>
  <style type="text/css">*{stroke-linejoin: round; stroke-linecap: butt}</style>
 </defs>
 <g id="figure_1">
  <g id="patch_1">
   <path d="M 0 345.6 
L 460.8 345.6 
L 460.8 0 
L 0 0 
z
" style="fill: #ffffff"/>
  </g>
  <g id="axes_1">
   <g id="patch_2">
    <path d="M 57.6 307.584 
L 414.72 307.584 
L 414.72 41.472 
L 57.6 41.472 
z
" style="fill: #ffffff"/>
   </g>
   <g id="PathCollection_1">
    <defs>
     <path id="mcf985e800e" d="M 0 3 
C 0.795609 3 1.55874 2.683901 2.12132 2.12132 
C 2.683901 1.55874 3 0.795609 3 0 
C 3 -0.795609 2.683901 -1.55874 2.12132 -2.12132 
C 1.55874 -2.683901 0.795609 -3 0 -3 
C -0.795609 -3 -1.55874 -2.683901 -2.12132 -2.12132 
C -2.683901 -1.55874 -3 -0.795609 -3 0 
C -3 0.795609 -2.683901 1.55874 -2.12132 2.12132 
C -1.55874 2.683901 -0.795609 3 0 3 
z
" style="stroke: #0000ff"/>
    </defs>
    <g clip-path="url(#p93f09f510c)">
     <use xlink:href="#mcf985e800e" x="73.832727" y="113.743617" style="fill: #0000ff; stroke: #0000ff"/>
     <use xlink:href="#mcf985e800e" x="75.464157" y="98.051176" style="fill: #0000ff; stroke: #0000ff"/>
     <use xlink:href="#mcf985e800e" x="77.095587" y="73.47163" style="fill: #0000ff; stroke: #0000ff"/>
     <use xlink:href="#mcf985e800e" x="78.727017" y="66.673959" style="fill: #0000ff; stroke: #0000ff"/>
     <use xlink:href="#mcf985e800e" x="80.358447" y="71.73209" style="fill: #0000ff; stroke: #0000ff"/>
     <use xlink:href="#mcf985e800e" x="81.989877" y="53.568" style="fill: #0000ff; stroke: #0000ff"/>
     <use xlink:href="#mcf985e800e" x="83.621307" y="58.017787" style="fill: #0000ff; stroke: #0000ff"/>
     <use xlink:href="#mcf985e800e" x="85.252736" y="77.185634" style="fill: #0000ff; stroke: #0000ff"/>
     <use xlink:href="#mcf985e800e" x="86.884166" y="131.975982" style="fill: #0000ff; stroke: #0000ff"/>
     <use xlink:href="#mcf985e800e" x="88.515596" y="151.031594" style="fill: #0000ff; stroke: #0000ff"/>
     <use xlink:href="#mcf985e800e" x="90.147026" y="154.31927" style="fill: #0000ff; stroke: #0000ff"/>
     <use xlink:href="#mcf985e800e" x="91.778456" y="203.311608" style="fill: #0000ff; stroke: #0000ff"/>
     <use xlink:href="#mcf985e800e" x="93.409886" y="227.421189" style="fill: #0000ff; stroke: #0000ff"/>
     <use xlink:href="#mcf985e800e" x="95.041316" y="231.401588" style="fill: #0000ff; stroke: #0000ff"/>
     <use xlink:href="#mcf985e800e" x="96.672746" y="257.373574" style="fill: #0000ff; stroke: #0000ff"/>
     <use xlink:href="#mcf985e800e" x="98.304175" y="267.148732" style="fill: #0000ff; stroke: #0000ff"/>
     <use xlink:href="#mcf985e800e" x="99.935605" y="288.705142" style="fill: #0000ff; stroke: #0000ff"/>
     <use xlink:href="#mcf985e800e" x="101.567035" y="295.488" style="fill: #0000ff; stroke: #0000ff"/>
     <use xlink:href="#mcf985e800e" x="103.198465" y="282.580854" style="fill: #0000ff; stroke: #0000ff"/>
     <use xlink:href="#mcf985e800e" x="104.829895" y="283.475902" style="fill: #0000ff; stroke: #0000ff"/>
     <use xlink:href="#mcf985e800e" x="106.461325" y="275.178031" style="fill: #0000ff; stroke: #0000ff"/>
     <use xlink:href="#mcf985e800e" x="108.092755" y="263.974558" style="fill: #0000ff; stroke: #0000ff"/>
     <use xlink:href="#mcf985e800e" x="109.724185" y="209.270061" style="fill: #0000ff; stroke: #0000ff"/>
     <use xlink:href="#mcf985e800e" x="111.355614" y="208.999265" style="fill: #0000ff; stroke: #0000ff"/>
     <use xlink:href="#mcf985e800e" x="112.987044" y="190.970298" style="fill: #0000ff; stroke: #0000ff"/>
     <use xlink:href="#mcf985e800e" x="114.618474" y="158.751165" style="fill: #0000ff; stroke: #0000ff"/>
     <use xlink:href="#mcf985e800e" x="116.249904" y="144.434415" style="fill: #0000ff; stroke: #0000ff"/>
     <use xlink:href="#mcf985e800e" x="117.881334" y="109.339879" style="fill: #0000ff; stroke: #0000ff"/>
     <use xlink:href="#mcf985e800e" x="119.512764" y="120.411037" style="fill: #0000ff; stroke: #0000ff"/>
     <use xlink:href="#mcf985e800e" x="121.144194" y="125.618059" style="fill: #0000ff; stroke: #0000ff"/>
     <use xlink:href="#mcf985e800e" x="122.775624" y="106.707562" style="fill: #0000ff; stroke: #0000ff"/>
     <use xlink:href="#mcf985e800e" x="124.407053" y="110.50474" style="fill: #0000ff; stroke: #0000ff"/>
     <use xlink:href="#mcf985e800e" x="126.038483" y="122.240207" style="fill: #0000ff; stroke: #0000ff"/>
     <use xlink:href="#mcf985e800e" x="127.669913" y="124.083856" style="fill: #0000ff; stroke: #0000ff"/>
     <use xlink:href="#mcf985e800e" x="129.301343" y="141.246898" style="fill: #0000ff; stroke: #0000ff"/>
     <use xlink:href="#mcf985e800e" x="130.932773" y="158.737264" style="fill: #0000ff; stroke: #0000ff"/>
     <use xlink:href="#mcf985e800e" x="132.564203" y="188.584149" style="fill: #0000ff; stroke: #0000ff"/>
     <use xlink:href="#mcf985e800e" x="134.195633" y="214.417557" style="fill: #0000ff; stroke: #0000ff"/>
     <use xlink:href="#mcf985e800e" x="135.827063" y="206.552753" style="fill: #0000ff; stroke: #0000ff"/>
     <use xlink:href="#mcf985e800e" x="137.458492" y="221.022235" style="fill: #0000ff; stroke: #0000ff"/>
     <use xlink:href="#mcf985e800e" x="139.089922" y="231.983976" style="fill: #0000ff; stroke: #0000ff"/>
     <use xlink:href="#mcf985e800e" x="140.721352" y="235.451126" style="fill: #0000ff; stroke: #0000ff"/>
     <use xlink:href="#mcf985e800e" x="142.352782" y="249.31242" style="fill: #0000ff; stroke: #0000ff"/>
     <use xlink:href="#mcf985e800e" x="143.984212" y="234.182761" style="fill: #0000ff; stroke: #0000ff"/>
     <use xlink:href="#mcf985e800e" x="145.615642" y="234.60422" style="fill: #0000ff; stroke: #0000ff"/>
     <use xlink:href="#mcf985e800e" x="147.247072" y="249.598709" style="fill: #0000ff; stroke: #0000ff"/>
     <use xlink:href="#mcf985e800e" x="148.878502" y="243.58142" style="fill: #0000ff; stroke: #0000ff"/>
     <use xlink:href="#mcf985e800e" x="150.509931" y="215.458224" style="fill: #0000ff; stroke: #0000ff"/>
     <use xlink:href="#mcf985e800e" x="152.141361" y="206.064248" style="fill: #0000ff; stroke: #0000ff"/>
     <use xlink:href="#mcf985e800e" x="153.772791" y="182.161061" style="fill: #0000ff; stroke: #0000ff"/>
     <use xlink:href="#mcf985e800e" x="155.404221" y="183.108751" style="fill: #0000ff; stroke: #0000ff"/>
     <use xlink:href="#mcf985e800e" x="157.035651" y="171.926252" style="fill: #0000ff; stroke: #0000ff"/>
     <use xlink:href="#mcf985e800e" x="158.667081" y="172.92783" style="fill: #0000ff; stroke: #0000ff"/>
     <use xlink:href="#mcf985e800e" x="160.298511" y="146.09035" style="fill: #0000ff; stroke: #0000ff"/>
     <use xlink:href="#mcf985e800e" x="161.929941" y="157.814696" style="fill: #0000ff; stroke: #0000ff"/>
     <use xlink:href="#mcf985e800e" x="163.56137" y="155.053203" style="fill: #0000ff; stroke: #0000ff"/>
     <use xlink:href="#mcf985e800e" x="165.1928" y="151.357278" style="fill: #0000ff; stroke: #0000ff"/>
     <use xlink:href="#mcf985e800e" x="166.82423" y="151.844954" style="fill: #0000ff; stroke: #0000ff"/>
     <use xlink:href="#mcf985e800e" x="168.45566" y="157.598813" style="fill: #0000ff; stroke: #0000ff"/>
     <use xlink:href="#mcf985e800e" x="170.08709" y="153.24987" style="fill: #0000ff; stroke: #0000ff"/>
     <use xlink:href="#mcf985e800e" x="171.71852" y="163.42822" style="fill: #0000ff; stroke: #0000ff"/>
     <use xlink:href="#mcf985e800e" x="173.34995" y="184.221482" style="fill: #0000ff; stroke: #0000ff"/>
     <use xlink:href="#mcf985e800e" x="174.98138" y="183.842212" style="fill: #0000ff; stroke: #0000ff"/>
     <use xlink:href="#mcf985e800e" x="176.61281" y="180.027043" style="fill: #0000ff; stroke: #0000ff"/>
     <use xlink:href="#mcf985e800e" x="178.244239" y="213.366618" style="fill: #0000ff; stroke: #0000ff"/>
     <use xlink:href="#mcf985e800e" x="179.875669" y="197.408115" style="fill: #0000ff; stroke: #0000ff"/>
     <use xlink:href="#mcf985e800e" x="181.507099" y="217.472432" style="fill: #0000ff; stroke: #0000ff"/>
     <use xlink:href="#mcf985e800e" x="183.138529" y="209.698582" style="fill: #0000ff; stroke: #0000ff"/>
     <use xlink:href="#mcf985e800e" x="184.769959" y="225.412526" style="fill: #0000ff; stroke: #0000ff"/>
     <use xlink:href="#mcf985e800e" x="186.401389" y="202.054284" style="fill: #0000ff; stroke: #0000ff"/>
     <use xlink:href="#mcf985e800e" x="188.032819" y="225.355238" style="fill: #0000ff; stroke: #0000ff"/>
     <use xlink:href="#mcf985e800e" x="189.664249" y="210.729625" style="fill: #0000ff; stroke: #0000ff"/>
     <use xlink:href="#mcf985e800e" x="191.295678" y="213.524395" style="fill: #0000ff; stroke: #0000ff"/>
     <use xlink:href="#mcf985e800e" x="192.927108" y="209.216506" style="fill: #0000ff; stroke: #0000ff"/>
     <use xlink:href="#mcf985e800e" x="194.558538" y="207.346908" style="fill: #0000ff; stroke: #0000ff"/>
     <use xlink:href="#mcf985e800e" x="196.189968" y="183.188926" style="fill: #0000ff; stroke: #0000ff"/>
     <use xlink:href="#mcf985e800e" x="197.821398" y="176.880528" style="fill: #0000ff; stroke: #0000ff"/>
     <use xlink:href="#mcf985e800e" x="199.452828" y="172.575151" style="fill: #0000ff; stroke: #0000ff"/>
     <use xlink:href="#mcf985e800e" x="201.084258" y="186.384938" style="fill: #0000ff; stroke: #0000ff"/>
     <use xlink:href="#mcf985e800e" x="202.715688" y="179.45927" style="fill: #0000ff; stroke: #0000ff"/>
     <use xlink:href="#mcf985e800e" x="204.347117" y="173.8998" style="fill: #0000ff; stroke: #0000ff"/>
     <use xlink:href="#mcf985e800e" x="205.978547" y="158.55586" style="fill: #0000ff; stroke: #0000ff"/>
     <use xlink:href="#mcf985e800e" x="207.609977" y="172.161796" style="fill: #0000ff; stroke: #0000ff"/>
     <use xlink:href="#mcf985e800e" x="209.241407" y="152.257447" style="fill: #0000ff; stroke: #0000ff"/>
     <use xlink:href="#mcf985e800e" x="210.872837" y="172.175232" style="fill: #0000ff; stroke: #0000ff"/>
     <use xlink:href="#mcf985e800e" x="212.504267" y="158.121162" style="fill: #0000ff; stroke: #0000ff"/>
     <use xlink:href="#mcf985e800e" x="214.135697" y="179.390334" style="fill: #0000ff; stroke: #0000ff"/>
     <use xlink:href="#mcf985e800e" x="215.767127" y="170.515066" style="fill: #0000ff; stroke: #0000ff"/>
     <use xlink:href="#mcf985e800e" x="217.398556" y="167.073009" style="fill: #0000ff; stroke: #0000ff"/>
     <use xlink:href="#mcf985e800e" x="219.029986" y="189.451465" style="fill: #0000ff; stroke: #0000ff"/>
     <use xlink:href="#mcf985e800e" x="220.661416" y="190.586937" style="fill: #0000ff; stroke: #0000ff"/>
     <use xlink:href="#mcf985e800e" x="222.292846" y="194.196792" style="fill: #0000ff; stroke: #0000ff"/>
     <use xlink:href="#mcf985e800e" x="223.924276" y="218.933182" style="fill: #0000ff; stroke: #0000ff"/>
     <use xlink:href="#mcf985e800e" x="225.555706" y="195.845315" style="fill: #0000ff; stroke: #0000ff"/>
     <use xlink:href="#mcf985e800e" x="227.187136" y="219.7842" style="fill: #0000ff; stroke: #0000ff"/>
     <use xlink:href="#mcf985e800e" x="228.818566" y="189.582572" style="fill: #0000ff; stroke: #0000ff"/>
     <use xlink:href="#mcf985e800e" x="230.449995" y="191.918284" style="fill: #0000ff; stroke: #0000ff"/>
     <use xlink:href="#mcf985e800e" x="232.081425" y="219.324286" style="fill: #0000ff; stroke: #0000ff"/>
     <use xlink:href="#mcf985e800e" x="233.712855" y="187.829083" style="fill: #0000ff; stroke: #0000ff"/>
     <use xlink:href="#mcf985e800e" x="235.344285" y="197.252736" style="fill: #0000ff; stroke: #0000ff"/>
     <use xlink:href="#mcf985e800e" x="236.975715" y="209.094545" style="fill: #0000ff; stroke: #0000ff"/>
     <use xlink:href="#mcf985e800e" x="238.607145" y="199.16602" style="fill: #0000ff; stroke: #0000ff"/>
     <use xlink:href="#mcf985e800e" x="240.238575" y="186.473598" style="fill: #0000ff; stroke: #0000ff"/>
     <use xlink:href="#mcf985e800e" x="241.870005" y="185.029939" style="fill: #0000ff; stroke: #0000ff"/>
     <use xlink:href="#mcf985e800e" x="243.501434" y="188.225316" style="fill: #0000ff; stroke: #0000ff"/>
     <use xlink:href="#mcf985e800e" x="245.132864" y="174.256225" style="fill: #0000ff; stroke: #0000ff"/>
     <use xlink:href="#mcf985e800e" x="246.764294" y="183.456734" style="fill: #0000ff; stroke: #0000ff"/>
     <use xlink:href="#mcf985e800e" x="248.395724" y="183.538545" style="fill: #0000ff; stroke: #0000ff"/>
     <use xlink:href="#mcf985e800e" x="250.027154" y="176.721287" style="fill: #0000ff; stroke: #0000ff"/>
     <use xlink:href="#mcf985e800e" x="251.658584" y="182.587378" style="fill: #0000ff; stroke: #0000ff"/>
     <use xlink:href="#mcf985e800e" x="253.290014" y="163.389897" style="fill: #0000ff; stroke: #0000ff"/>
     <use xlink:href="#mcf985e800e" x="254.921444" y="196.533852" style="fill: #0000ff; stroke: #0000ff"/>
     <use xlink:href="#mcf985e800e" x="256.552873" y="186.575274" style="fill: #0000ff; stroke: #0000ff"/>
     <use xlink:href="#mcf985e800e" x="258.184303" y="185.314439" style="fill: #0000ff; stroke: #0000ff"/>
     <use xlink:href="#mcf985e800e" x="259.815733" y="192.748489" style="fill: #0000ff; stroke: #0000ff"/>
     <use xlink:href="#mcf985e800e" x="261.447163" y="196.533105" style="fill: #0000ff; stroke: #0000ff"/>
     <use xlink:href="#mcf985e800e" x="263.078593" y="197.605599" style="fill: #0000ff; stroke: #0000ff"/>
     <use xlink:href="#mcf985e800e" x="264.710023" y="190.418544" style="fill: #0000ff; stroke: #0000ff"/>
     <use xlink:href="#mcf985e800e" x="266.341453" y="188.215781" style="fill: #0000ff; stroke: #0000ff"/>
     <use xlink:href="#mcf985e800e" x="267.972883" y="205.155756" style="fill: #0000ff; stroke: #0000ff"/>
     <use xlink:href="#mcf985e800e" x="269.604312" y="193.001445" style="fill: #0000ff; stroke: #0000ff"/>
     <use xlink:href="#mcf985e800e" x="271.235742" y="184.790116" style="fill: #0000ff; stroke: #0000ff"/>
     <use xlink:href="#mcf985e800e" x="272.867172" y="194.894439" style="fill: #0000ff; stroke: #0000ff"/>
     <use xlink:href="#mcf985e800e" x="274.498602" y="207.752474" style="fill: #0000ff; stroke: #0000ff"/>
     <use xlink:href="#mcf985e800e" x="276.130032" y="200.470033" style="fill: #0000ff; stroke: #0000ff"/>
     <use xlink:href="#mcf985e800e" x="277.761462" y="193.904401" style="fill: #0000ff; stroke: #0000ff"/>
     <use xlink:href="#mcf985e800e" x="279.392892" y="196.136489" style="fill: #0000ff; stroke: #0000ff"/>
     <use xlink:href="#mcf985e800e" x="281.024322" y="199.329444" style="fill: #0000ff; stroke: #0000ff"/>
     <use xlink:href="#mcf985e800e" x="282.655751" y="194.588399" style="fill: #0000ff; stroke: #0000ff"/>
     <use xlink:href="#mcf985e800e" x="284.287181" y="182.304617" style="fill: #0000ff; stroke: #0000ff"/>
     <use xlink:href="#mcf985e800e" x="285.918611" y="196.030053" style="fill: #0000ff; stroke: #0000ff"/>
     <use xlink:href="#mcf985e800e" x="287.550041" y="186.041951" style="fill: #0000ff; stroke: #0000ff"/>
     <use xlink:href="#mcf985e800e" x="289.181471" y="183.915315" style="fill: #0000ff; stroke: #0000ff"/>
     <use xlink:href="#mcf985e800e" x="290.812901" y="176.642735" style="fill: #0000ff; stroke: #0000ff"/>
     <use xlink:href="#mcf985e800e" x="292.444331" y="175.097891" style="fill: #0000ff; stroke: #0000ff"/>
     <use xlink:href="#mcf985e800e" x="294.075761" y="172.428773" style="fill: #0000ff; stroke: #0000ff"/>
     <use xlink:href="#mcf985e800e" x="295.70719" y="188.518963" style="fill: #0000ff; stroke: #0000ff"/>
     <use xlink:href="#mcf985e800e" x="297.33862" y="180.961024" style="fill: #0000ff; stroke: #0000ff"/>
     <use xlink:href="#mcf985e800e" x="298.97005" y="182.23355" style="fill: #0000ff; stroke: #0000ff"/>
     <use xlink:href="#mcf985e800e" x="300.60148" y="192.216521" style="fill: #0000ff; stroke: #0000ff"/>
     <use xlink:href="#mcf985e800e" x="302.23291" y="183.528367" style="fill: #0000ff; stroke: #0000ff"/>
     <use xlink:href="#mcf985e800e" x="303.86434" y="198.10229" style="fill: #0000ff; stroke: #0000ff"/>
     <use xlink:href="#mcf985e800e" x="305.49577" y="197.807478" style="fill: #0000ff; stroke: #0000ff"/>
     <use xlink:href="#mcf985e800e" x="307.1272" y="186.440801" style="fill: #0000ff; stroke: #0000ff"/>
     <use xlink:href="#mcf985e800e" x="308.75863" y="170.298093" style="fill: #0000ff; stroke: #0000ff"/>
     <use xlink:href="#mcf985e800e" x="310.390059" y="201.43657" style="fill: #0000ff; stroke: #0000ff"/>
     <use xlink:href="#mcf985e800e" x="312.021489" y="190.971965" style="fill: #0000ff; stroke: #0000ff"/>
     <use xlink:href="#mcf985e800e" x="313.652919" y="204.729107" style="fill: #0000ff; stroke: #0000ff"/>
     <use xlink:href="#mcf985e800e" x="315.284349" y="182.525219" style="fill: #0000ff; stroke: #0000ff"/>
     <use xlink:href="#mcf985e800e" x="316.915779" y="196.47517" style="fill: #0000ff; stroke: #0000ff"/>
     <use xlink:href="#mcf985e800e" x="318.547209" y="188.699115" style="fill: #0000ff; stroke: #0000ff"/>
     <use xlink:href="#mcf985e800e" x="320.178639" y="192.021086" style="fill: #0000ff; stroke: #0000ff"/>
     <use xlink:href="#mcf985e800e" x="321.810069" y="189.546992" style="fill: #0000ff; stroke: #0000ff"/>
     <use xlink:href="#mcf985e800e" x="323.441498" y="199.8244" style="fill: #0000ff; stroke: #0000ff"/>
     <use xlink:href="#mcf985e800e" x="325.072928" y="184.227925" style="fill: #0000ff; stroke: #0000ff"/>
     <use xlink:href="#mcf985e800e" x="326.704358" y="187.668533" style="fill: #0000ff; stroke: #0000ff"/>
     <use xlink:href="#mcf985e800e" x="328.335788" y="186.138945" style="fill: #0000ff; stroke: #0000ff"/>
     <use xlink:href="#mcf985e800e" x="329.967218" y="189.524399" style="fill: #0000ff; stroke: #0000ff"/>
     <use xlink:href="#mcf985e800e" x="331.598648" y="188.341425" style="fill: #0000ff; stroke: #0000ff"/>
     <use xlink:href="#mcf985e800e" x="333.230078" y="205.496912" style="fill: #0000ff; stroke: #0000ff"/>
     <use xlink:href="#mcf985e800e" x="334.861508" y="183.944303" style="fill: #0000ff; stroke: #0000ff"/>
     <use xlink:href="#mcf985e800e" x="336.492937" y="195.349913" style="fill: #0000ff; stroke: #0000ff"/>
     <use xlink:href="#mcf985e800e" x="338.124367" y="184.979852" style="fill: #0000ff; stroke: #0000ff"/>
     <use xlink:href="#mcf985e800e" x="339.755797" y="182.578026" style="fill: #0000ff; stroke: #0000ff"/>
     <use xlink:href="#mcf985e800e" x="341.387227" y="169.412332" style="fill: #0000ff; stroke: #0000ff"/>
     <use xlink:href="#mcf985e800e" x="343.018657" y="180.402943" style="fill: #0000ff; stroke: #0000ff"/>
     <use xlink:href="#mcf985e800e" x="344.650087" y="185.702733" style="fill: #0000ff; stroke: #0000ff"/>
     <use xlink:href="#mcf985e800e" x="346.281517" y="193.823297" style="fill: #0000ff; stroke: #0000ff"/>
     <use xlink:href="#mcf985e800e" x="347.912947" y="195.861033" style="fill: #0000ff; stroke: #0000ff"/>
     <use xlink:href="#mcf985e800e" x="349.544376" y="202.389355" style="fill: #0000ff; stroke: #0000ff"/>
     <use xlink:href="#mcf985e800e" x="351.175806" y="204.014063" style="fill: #0000ff; stroke: #0000ff"/>
     <use xlink:href="#mcf985e800e" x="352.807236" y="185.541065" style="fill: #0000ff; stroke: #0000ff"/>
     <use xlink:href="#mcf985e800e" x="354.438666" y="178.748013" style="fill: #0000ff; stroke: #0000ff"/>
     <use xlink:href="#mcf985e800e" x="356.070096" y="188.530623" style="fill: #0000ff; stroke: #0000ff"/>
     <use xlink:href="#mcf985e800e" x="357.701526" y="184.624591" style="fill: #0000ff; stroke: #0000ff"/>
     <use xlink:href="#mcf985e800e" x="359.332956" y="191.147314" style="fill: #0000ff; stroke: #0000ff"/>
     <use xlink:href="#mcf985e800e" x="360.964386" y="198.325123" style="fill: #0000ff; stroke: #0000ff"/>
     <use xlink:href="#mcf985e800e" x="362.595815" y="197.833928" style="fill: #0000ff; stroke: #0000ff"/>
     <use xlink:href="#mcf985e800e" x="364.227245" y="173.964761" style="fill: #0000ff; stroke: #0000ff"/>
     <use xlink:href="#mcf985e800e" x="365.858675" y="185.686077" style="fill: #0000ff; stroke: #0000ff"/>
     <use xlink:href="#mcf985e800e" x="367.490105" y="180.637457" style="fill: #0000ff; stroke: #0000ff"/>
     <use xlink:href="#mcf985e800e" x="369.121535" y="179.794232" style="fill: #0000ff; stroke: #0000ff"/>
     <use xlink:href="#mcf985e800e" x="370.752965" y="182.554439" style="fill: #0000ff; stroke: #0000ff"/>
     <use xlink:href="#mcf985e800e" x="372.384395" y="182.348868" style="fill: #0000ff; stroke: #0000ff"/>
     <use xlink:href="#mcf985e800e" x="374.015825" y="192.644953" style="fill: #0000ff; stroke: #0000ff"/>
     <use xlink:href="#mcf985e800e" x="375.647254" y="179.119905" style="fill: #0000ff; stroke: #0000ff"/>
     <use xlink:href="#mcf985e800e" x="377.278684" y="208.451724" style="fill: #0000ff; stroke: #0000ff"/>
     <use xlink:href="#mcf985e800e" x="378.910114" y="177.428182" style="fill: #0000ff; stroke: #0000ff"/>
     <use xlink:href="#mcf985e800e" x="380.541544" y="177.557439" style="fill: #0000ff; stroke: #0000ff"/>
     <use xlink:href="#mcf985e800e" x="382.172974" y="190.503275" style="fill: #0000ff; stroke: #0000ff"/>
     <use xlink:href="#mcf985e800e" x="383.804404" y="178.26972" style="fill: #0000ff; stroke: #0000ff"/>
     <use xlink:href="#mcf985e800e" x="385.435834" y="195.69626" style="fill: #0000ff; stroke: #0000ff"/>
     <use xlink:href="#mcf985e800e" x="387.067264" y="182.625633" style="fill: #0000ff; stroke: #0000ff"/>
     <use xlink:href="#mcf985e800e" x="388.698693" y="174.67638" style="fill: #0000ff; stroke: #0000ff"/>
     <use xlink:href="#mcf985e800e" x="390.330123" y="175.919309" style="fill: #0000ff; stroke: #0000ff"/>
     <use xlink:href="#mcf985e800e" x="391.961553" y="191.752641" style="fill: #0000ff; stroke: #0000ff"/>
     <use xlink:href="#mcf985e800e" x="393.592983" y="191.321085" style="fill: #0000ff; stroke: #0000ff"/>
     <use xlink:href="#mcf985e800e" x="395.224413" y="194.157302" style="fill: #0000ff; stroke: #0000ff"/>
     <use xlink:href="#mcf985e800e" x="396.855843" y="186.274673" style="fill: #0000ff; stroke: #0000ff"/>
     <use xlink:href="#mcf985e800e" x="398.487273" y="179.597372" style="fill: #0000ff; stroke: #0000ff"/>
    </g>
   </g>
   <g id="matplotlib.axis_1">
    <g id="xtick_1">
     <g id="line2d_1">
      <defs>
       <path id="m20880c6c2a" d="M 0 0 
L 0 3.5 
" style="stroke: #000000; stroke-width: 0.8"/>
      </defs>
      <g>
       <use xlink:href="#m20880c6c2a" x="73.832727" y="307.584" style="stroke: #000000; stroke-width: 0.8"/>
      </g>
     </g>
     <g id="text_1">
      <!-- 0.0 -->
      <g transform="translate(65.881165 322.182437) scale(0.1 -0.1)">
       <defs>
        <path id="DejaVuSans-30" d="M 2034 4250 
Q 1547 4250 1301 3770 
Q 1056 3291 1056 2328 
Q 1056 1369 1301 889 
Q 1547 409 2034 409 
Q 2525 409 2770 889 
Q 3016 1369 3016 2328 
Q 3016 3291 2770 3770 
Q 2525 4250 2034 4250 
z
M 2034 4750 
Q 2819 4750 3233 4129 
Q 3647 3509 3647 2328 
Q 3647 1150 3233 529 
Q 2819 -91 2034 -91 
Q 1250 -91 836 529 
Q 422 1150 422 2328 
Q 422 3509 836 4129 
Q 1250 4750 2034 4750 
z
" transform="scale(0.015625)"/>
        <path id="DejaVuSans-2e" d="M 684 794 
L 1344 794 
L 1344 0 
L 684 0 
L 684 794 
z
" transform="scale(0.015625)"/>
       </defs>
       <use xlink:href="#DejaVuSans-30"/>
       <use xlink:href="#DejaVuSans-2e" x="63.623047"/>
       <use xlink:href="#DejaVuSans-30" x="95.410156"/>
      </g>
     </g>
    </g>
    <g id="xtick_2">
     <g id="line2d_2">
      <g>
       <use xlink:href="#m20880c6c2a" x="138.763636" y="307.584" style="stroke: #000000; stroke-width: 0.8"/>
      </g>
     </g>
     <g id="text_2">
      <!-- 0.2 -->
      <g transform="translate(130.812074 322.182437) scale(0.1 -0.1)">
       <defs>
        <path id="DejaVuSans-32" d="M 1228 531 
L 3431 531 
L 3431 0 
L 469 0 
L 469 531 
Q 828 903 1448 1529 
Q 2069 2156 2228 2338 
Q 2531 2678 2651 2914 
Q 2772 3150 2772 3378 
Q 2772 3750 2511 3984 
Q 2250 4219 1831 4219 
Q 1534 4219 1204 4116 
Q 875 4013 500 3803 
L 500 4441 
Q 881 4594 1212 4672 
Q 1544 4750 1819 4750 
Q 2544 4750 2975 4387 
Q 3406 4025 3406 3419 
Q 3406 3131 3298 2873 
Q 3191 2616 2906 2266 
Q 2828 2175 2409 1742 
Q 1991 1309 1228 531 
z
" transform="scale(0.015625)"/>
       </defs>
       <use xlink:href="#DejaVuSans-30"/>
       <use xlink:href="#DejaVuSans-2e" x="63.623047"/>
       <use xlink:href="#DejaVuSans-32" x="95.410156"/>
      </g>
     </g>
    </g>
    <g id="xtick_3">
     <g id="line2d_3">
      <g>
       <use xlink:href="#m20880c6c2a" x="203.694545" y="307.584" style="stroke: #000000; stroke-width: 0.8"/>
      </g>
     </g>
     <g id="text_3">
      <!-- 0.4 -->
      <g transform="translate(195.742983 322.182437) scale(0.1 -0.1)">
       <defs>
        <path id="DejaVuSans-34" d="M 2419 4116 
L 825 1625 
L 2419 1625 
L 2419 4116 
z
M 2253 4666 
L 3047 4666 
L 3047 1625 
L 3713 1625 
L 3713 1100 
L 3047 1100 
L 3047 0 
L 2419 0 
L 2419 1100 
L 313 1100 
L 313 1709 
L 2253 4666 
z
" transform="scale(0.015625)"/>
       </defs>
       <use xlink:href="#DejaVuSans-30"/>
       <use xlink:href="#DejaVuSans-2e" x="63.623047"/>
       <use xlink:href="#DejaVuSans-34" x="95.410156"/>
      </g>
     </g>
    </g>
    <g id="xtick_4">
     <g id="line2d_4">
      <g>
       <use xlink:href="#m20880c6c2a" x="268.625455" y="307.584" style="stroke: #000000; stroke-width: 0.8"/>
      </g>
     </g>
     <g id="text_4">
      <!-- 0.6 -->
      <g transform="translate(260.673892 322.182437) scale(0.1 -0.1)">
       <defs>
        <path id="DejaVuSans-36" d="M 2113 2584 
Q 1688 2584 1439 2293 
Q 1191 2003 1191 1497 
Q 1191 994 1439 701 
Q 1688 409 2113 409 
Q 2538 409 2786 701 
Q 3034 994 3034 1497 
Q 3034 2003 2786 2293 
Q 2538 2584 2113 2584 
z
M 3366 4563 
L 3366 3988 
Q 3128 4100 2886 4159 
Q 2644 4219 2406 4219 
Q 1781 4219 1451 3797 
Q 1122 3375 1075 2522 
Q 1259 2794 1537 2939 
Q 1816 3084 2150 3084 
Q 2853 3084 3261 2657 
Q 3669 2231 3669 1497 
Q 3669 778 3244 343 
Q 2819 -91 2113 -91 
Q 1303 -91 875 529 
Q 447 1150 447 2328 
Q 447 3434 972 4092 
Q 1497 4750 2381 4750 
Q 2619 4750 2861 4703 
Q 3103 4656 3366 4563 
z
" transform="scale(0.015625)"/>
       </defs>
       <use xlink:href="#DejaVuSans-30"/>
       <use xlink:href="#DejaVuSans-2e" x="63.623047"/>
       <use xlink:href="#DejaVuSans-36" x="95.410156"/>
      </g>
     </g>
    </g>
    <g id="xtick_5">
     <g id="line2d_5">
      <g>
       <use xlink:href="#m20880c6c2a" x="333.556364" y="307.584" style="stroke: #000000; stroke-width: 0.8"/>
      </g>
     </g>
     <g id="text_5">
      <!-- 0.8 -->
      <g transform="translate(325.604801 322.182437) scale(0.1 -0.1)">
       <defs>
        <path id="DejaVuSans-38" d="M 2034 2216 
Q 1584 2216 1326 1975 
Q 1069 1734 1069 1313 
Q 1069 891 1326 650 
Q 1584 409 2034 409 
Q 2484 409 2743 651 
Q 3003 894 3003 1313 
Q 3003 1734 2745 1975 
Q 2488 2216 2034 2216 
z
M 1403 2484 
Q 997 2584 770 2862 
Q 544 3141 544 3541 
Q 544 4100 942 4425 
Q 1341 4750 2034 4750 
Q 2731 4750 3128 4425 
Q 3525 4100 3525 3541 
Q 3525 3141 3298 2862 
Q 3072 2584 2669 2484 
Q 3125 2378 3379 2068 
Q 3634 1759 3634 1313 
Q 3634 634 3220 271 
Q 2806 -91 2034 -91 
Q 1263 -91 848 271 
Q 434 634 434 1313 
Q 434 1759 690 2068 
Q 947 2378 1403 2484 
z
M 1172 3481 
Q 1172 3119 1398 2916 
Q 1625 2713 2034 2713 
Q 2441 2713 2670 2916 
Q 2900 3119 2900 3481 
Q 2900 3844 2670 4047 
Q 2441 4250 2034 4250 
Q 1625 4250 1398 4047 
Q 1172 3844 1172 3481 
z
" transform="scale(0.015625)"/>
       </defs>
       <use xlink:href="#DejaVuSans-30"/>
       <use xlink:href="#DejaVuSans-2e" x="63.623047"/>
       <use xlink:href="#DejaVuSans-38" x="95.410156"/>
      </g>
     </g>
    </g>
    <g id="xtick_6">
     <g id="line2d_6">
      <g>
       <use xlink:href="#m20880c6c2a" x="398.487273" y="307.584" style="stroke: #000000; stroke-width: 0.8"/>
      </g>
     </g>
     <g id="text_6">
      <!-- 1.0 -->
      <g transform="translate(390.53571 322.182437) scale(0.1 -0.1)">
       <defs>
        <path id="DejaVuSans-31" d="M 794 531 
L 1825 531 
L 1825 4091 
L 703 3866 
L 703 4441 
L 1819 4666 
L 2450 4666 
L 2450 531 
L 3481 531 
L 3481 0 
L 794 0 
L 794 531 
z
" transform="scale(0.015625)"/>
       </defs>
       <use xlink:href="#DejaVuSans-31"/>
       <use xlink:href="#DejaVuSans-2e" x="63.623047"/>
       <use xlink:href="#DejaVuSans-30" x="95.410156"/>
      </g>
     </g>
    </g>
   </g>
   <g id="matplotlib.axis_2">
    <g id="ytick_1">
     <g id="line2d_7">
      <defs>
       <path id="ma8e7d42fcb" d="M 0 0 
L -3.5 0 
" style="stroke: #000000; stroke-width: 0.8"/>
      </defs>
      <g>
       <use xlink:href="#ma8e7d42fcb" x="57.6" y="286.202717" style="stroke: #000000; stroke-width: 0.8"/>
      </g>
     </g>
     <g id="text_7">
      <!-- −1 -->
      <g transform="translate(35.857813 290.001936) scale(0.1 -0.1)">
       <defs>
        <path id="DejaVuSans-2212" d="M 678 2272 
L 4684 2272 
L 4684 1741 
L 678 1741 
L 678 2272 
z
" transform="scale(0.015625)"/>
       </defs>
       <use xlink:href="#DejaVuSans-2212"/>
       <use xlink:href="#DejaVuSans-31" x="83.789062"/>
      </g>
     </g>
    </g>
    <g id="ytick_2">
     <g id="line2d_8">
      <g>
       <use xlink:href="#ma8e7d42fcb" x="57.6" y="229.281783" style="stroke: #000000; stroke-width: 0.8"/>
      </g>
     </g>
     <g id="text_8">
      <!-- 0 -->
      <g transform="translate(44.2375 233.081002) scale(0.1 -0.1)">
       <use xlink:href="#DejaVuSans-30"/>
      </g>
     </g>
    </g>
    <g id="ytick_3">
     <g id="line2d_9">
      <g>
       <use xlink:href="#ma8e7d42fcb" x="57.6" y="172.360849" style="stroke: #000000; stroke-width: 0.8"/>
      </g>
     </g>
     <g id="text_9">
      <!-- 1 -->
      <g transform="translate(44.2375 176.160068) scale(0.1 -0.1)">
       <use xlink:href="#DejaVuSans-31"/>
      </g>
     </g>
    </g>
    <g id="ytick_4">
     <g id="line2d_10">
      <g>
       <use xlink:href="#ma8e7d42fcb" x="57.6" y="115.439915" style="stroke: #000000; stroke-width: 0.8"/>
      </g>
     </g>
     <g id="text_10">
      <!-- 2 -->
      <g transform="translate(44.2375 119.239134) scale(0.1 -0.1)">
       <use xlink:href="#DejaVuSans-32"/>
      </g>
     </g>
    </g>
    <g id="ytick_5">
     <g id="line2d_11">
      <g>
       <use xlink:href="#ma8e7d42fcb" x="57.6" y="58.518981" style="stroke: #000000; stroke-width: 0.8"/>
      </g>
     </g>
     <g id="text_11">
      <!-- 3 -->
      <g transform="translate(44.2375 62.3182) scale(0.1 -0.1)">
       <defs>
        <path id="DejaVuSans-33" d="M 2597 2516 
Q 3050 2419 3304 2112 
Q 3559 1806 3559 1356 
Q 3559 666 3084 287 
Q 2609 -91 1734 -91 
Q 1441 -91 1130 -33 
Q 819 25 488 141 
L 488 750 
Q 750 597 1062 519 
Q 1375 441 1716 441 
Q 2309 441 2620 675 
Q 2931 909 2931 1356 
Q 2931 1769 2642 2001 
Q 2353 2234 1838 2234 
L 1294 2234 
L 1294 2753 
L 1863 2753 
Q 2328 2753 2575 2939 
Q 2822 3125 2822 3475 
Q 2822 3834 2567 4026 
Q 2313 4219 1838 4219 
Q 1578 4219 1281 4162 
Q 984 4106 628 3988 
L 628 4550 
Q 988 4650 1302 4700 
Q 1616 4750 1894 4750 
Q 2613 4750 3031 4423 
Q 3450 4097 3450 3541 
Q 3450 3153 3228 2886 
Q 3006 2619 2597 2516 
z
" transform="scale(0.015625)"/>
       </defs>
       <use xlink:href="#DejaVuSans-33"/>
      </g>
     </g>
    </g>
   </g>
   <g id="line2d_12">
    <path d="M 73.832727 115.331174 
L 75.132645 94.178919 
L 76.107584 81.049222 
L 77.082523 70.501902 
L 78.057461 62.68771 
L 78.70742 59.04361 
L 79.357379 56.66706 
L 79.682359 55.954455 
L 80.007338 55.557663 
L 80.332318 55.4748 
L 80.657297 55.703267 
L 80.982277 56.23976 
L 81.632236 58.220184 
L 82.282195 61.376161 
L 82.932154 65.657572 
L 83.907093 74.056904 
L 84.882031 84.614289 
L 86.181949 101.565391 
L 87.806847 126.319487 
L 90.406683 170.376951 
L 93.331499 219.109823 
L 94.956396 242.671097 
L 96.256314 258.611022 
L 97.231253 268.535476 
L 98.206192 276.538357 
L 99.18113 282.504281 
L 99.831089 285.313461 
L 100.481048 287.175798 
L 100.806028 287.751395 
L 101.131007 288.090781 
L 101.455987 288.195268 
L 101.780966 288.0667 
L 102.105946 287.707453 
L 102.755905 286.308984 
L 103.405864 284.028973 
L 104.055823 280.904199 
L 105.030762 274.731117 
L 106.0057 266.933643 
L 107.305618 254.367935 
L 108.930516 235.959025 
L 111.530352 203.085411 
L 114.455168 166.590092 
L 116.080066 148.886644 
L 117.379984 136.876224 
L 118.354922 129.375945 
L 119.329861 123.305381 
L 120.304799 118.752793 
L 120.954758 116.589323 
L 121.604717 115.133076 
L 122.254676 114.38504 
L 122.579656 114.275103 
L 122.904636 114.33961 
L 123.229615 114.57686 
L 123.879574 115.560846 
L 124.529533 117.205843 
L 125.179492 119.484872 
L 126.154431 124.020004 
L 127.129369 129.777693 
L 128.429287 139.091076 
L 130.054185 152.779749 
L 132.654021 177.306469 
L 135.578837 204.635122 
L 137.203735 217.935822 
L 138.503653 226.984255 
L 139.803571 234.308004 
L 140.778509 238.540781 
L 141.753448 241.625541 
L 142.403407 243.02657 
L 143.053366 243.898178 
L 143.703325 244.241654 
L 144.028305 244.217083 
L 144.353284 244.063166 
L 145.003243 243.373619 
L 145.653202 242.188464 
L 146.303161 240.527483 
L 147.2781 237.197038 
L 148.253038 232.946572 
L 149.552957 226.044837 
L 151.177854 215.867217 
L 153.452711 199.914779 
L 156.702506 177.106752 
L 158.327404 167.114829 
L 159.627322 160.298783 
L 160.92724 154.763197 
L 161.902179 151.549176 
L 162.877117 149.190942 
L 163.527076 148.108016 
L 164.177035 147.420638 
L 164.826994 147.12818 
L 165.476953 147.22636 
L 166.126912 147.707346 
L 166.776871 148.559894 
L 167.42683 149.769507 
L 168.401769 152.214247 
L 169.376708 155.351258 
L 170.676626 160.464992 
L 172.301523 168.031268 
L 174.57638 179.928532 
L 177.826175 197.001409 
L 179.451073 204.506949 
L 180.750991 209.64072 
L 182.050909 213.823962 
L 183.025848 216.26369 
L 184.000786 218.065528 
L 184.650745 218.901636 
L 185.300704 219.442241 
L 185.950663 219.68756 
L 186.600622 219.640547 
L 187.250581 219.306818 
L 187.900541 218.694549 
L 188.5505 217.814358 
L 189.525438 216.020558 
L 190.500377 213.705916 
L 191.800295 209.917605 
L 193.425192 204.293303 
L 195.700049 195.421127 
L 199.274824 181.455255 
L 200.899722 175.978399 
L 202.19964 172.278307 
L 203.499558 169.309482 
L 204.474496 167.614095 
L 205.449435 166.400654 
L 206.099394 165.86603 
L 206.749353 165.552423 
L 207.399312 165.458829 
L 208.049271 165.582218 
L 208.69923 165.917602 
L 209.349189 166.458112 
L 210.324128 167.634105 
L 211.299066 169.215666 
L 212.598984 171.87904 
L 213.898903 175.064872 
L 215.84878 180.524521 
L 221.048452 195.601265 
L 222.67335 199.454714 
L 223.973268 201.980698 
L 224.948206 203.49926 
L 225.923145 204.669415 
L 226.898084 205.476077 
L 227.873022 205.912109 
L 228.522981 205.996942 
L 229.17294 205.919353 
L 229.822899 205.682939 
L 230.797838 205.041845 
L 231.772776 204.077439 
L 232.747715 202.818306 
L 234.047633 200.740343 
L 235.672531 197.633706 
L 237.947387 192.701011 
L 241.522162 184.875372 
L 243.14706 181.783303 
L 244.446978 179.682642 
L 245.746896 177.985267 
L 246.721835 177.006536 
L 247.696773 176.295715 
L 248.671712 175.860478 
L 249.64665 175.702575 
L 250.621589 175.817948 
L 251.596527 176.196972 
L 252.571466 176.8248 
L 253.546405 177.68181 
L 254.846323 179.139213 
L 256.47122 181.371799 
L 258.746077 184.995871 
L 262.970811 191.886589 
L 264.595708 194.140413 
L 265.895627 195.652198 
L 267.195545 196.854167 
L 268.495463 197.713077 
L 269.470401 198.119878 
L 270.44534 198.319413 
L 271.420278 198.313022 
L 272.395217 198.106285 
L 273.370156 197.708796 
L 274.670074 196.905565 
L 275.969992 195.827804 
L 277.594889 194.17016 
L 279.869746 191.469835 
L 284.419459 185.953529 
L 286.044357 184.314074 
L 287.669255 182.99394 
L 288.969173 182.209745 
L 290.269091 181.689836 
L 291.569009 181.444017 
L 292.868927 181.471689 
L 294.168845 181.762229 
L 295.468763 182.295743 
L 297.093661 183.260801 
L 298.718559 184.491401 
L 300.993415 186.503252 
L 305.868108 190.894934 
L 307.817985 192.294879 
L 309.442883 193.182379 
L 310.742801 193.680061 
L 312.042719 193.975936 
L 313.342637 194.066231 
L 314.642555 193.954849 
L 315.942473 193.652963 
L 317.567371 193.035341 
L 319.517248 192.00543 
L 322.117084 190.310746 
L 327.316757 186.831387 
L 329.266634 185.818991 
L 330.891532 185.190368 
L 332.516429 184.786938 
L 334.141327 184.621858 
L 335.766224 184.694122 
L 337.391122 184.989238 
L 339.340999 185.599409 
L 341.615856 186.580951 
L 345.51561 188.581969 
L 348.765405 190.13845 
L 351.040262 190.970346 
L 352.990139 191.442394 
L 354.940016 191.662801 
L 356.889894 191.626732 
L 358.839771 191.35052 
L 361.114627 190.772405 
L 364.039443 189.751725 
L 370.539034 187.372517 
L 372.81389 186.805573 
L 375.088747 186.477291 
L 377.038624 186.403142 
L 379.313481 186.552884 
L 381.588337 186.925678 
L 384.513153 187.642945 
L 392.637641 189.810187 
L 395.237477 190.201322 
L 397.512334 190.34108 
L 398.487273 190.341054 
L 398.487273 190.341054 
" clip-path="url(#p93f09f510c)" style="fill: none; stroke: #ff0000; stroke-width: 1.5; stroke-linecap: square"/>
   </g>
   <g id="patch_3">
    <path d="M 57.6 307.584 
L 57.6 41.472 
" style="fill: none; stroke: #000000; stroke-width: 0.8; stroke-linejoin: miter; stroke-linecap: square"/>
   </g>
   <g id="patch_4">
    <path d="M 414.72 307.584 
L 414.72 41.472 
" style="fill: none; stroke: #000000; stroke-width: 0.8; stroke-linejoin: miter; stroke-linecap: square"/>
   </g>
   <g id="patch_5">
    <path d="M 57.6 307.584 
L 414.72 307.584 
" style="fill: none; stroke: #000000; stroke-width: 0.8; stroke-linejoin: miter; stroke-linecap: square"/>
   </g>
   <g id="patch_6">
    <path d="M 57.6 41.472 
L 414.72 41.472 
" style="fill: none; stroke: #000000; stroke-width: 0.8; stroke-linejoin: miter; stroke-linecap: square"/>
   </g>
  </g>
 </g>
 <defs>
  <clipPath id="p93f09f510c">
   <rect x="57.6" y="41.472" width="357.12" height="266.112"/>
  </clipPath>
 </defs>
</svg>
